<svg width="772" height="927" viewBox="0 0 772 927" fill="none" xmlns="http://www.w3.org/2000/svg">
<path opacity="0.5" d="M694.626 882.669L694.319 882.49L617.748 838.278L617.748 749.523L618.055 749.344L694.626 705.133L694.933 705.311L771.504 749.523L771.504 838.278L771.197 838.457L694.626 882.669ZM618.95 837.588L694.626 881.262L770.302 837.588L770.302 750.239L694.626 706.564L618.95 750.239L618.95 837.588Z" fill="#D0D9DD"/>
<path opacity="0.5" d="M694.626 706.564L694.319 706.385L617.748 662.174L617.748 573.418L618.055 573.239L694.626 529.028L771.504 573.418L771.504 662.174L771.197 662.353L694.626 706.564ZM618.95 661.483L694.626 705.158L770.302 661.483L770.302 574.134L694.626 530.46L618.95 574.134L618.95 661.483Z" fill="#D0D9DD"/>
<path opacity="0.5" d="M694.626 442.37L617.748 397.979L617.748 309.224L618.055 309.045L694.626 264.833L771.504 309.224L771.504 397.979L771.197 398.158L694.626 442.37ZM618.95 397.289L694.626 440.963L770.302 397.289L770.302 309.94L694.626 266.265L618.95 309.94L618.95 397.289Z" fill="#D0D9DD"/>
<path opacity="0.5" d="M694.626 354.33L617.748 309.94L617.748 221.185L618.055 221.006L694.626 176.794L771.504 221.185L771.504 309.94L771.197 310.119L694.626 354.33ZM618.95 309.249L694.626 352.924L770.302 309.249L770.302 221.901L694.626 178.226L618.95 221.901L618.95 309.249Z" fill="#D0D9DD"/>
<path opacity="0.5" d="M694.626 178.201L617.748 133.81L617.748 45.055L618.055 44.876L694.626 0.690172L771.504 45.0806L771.504 133.836L771.197 134.015L694.626 178.226L694.626 178.201ZM618.95 133.12L694.626 176.794L770.302 133.12L770.302 45.771L694.626 2.09655L618.95 45.771L618.95 133.12Z" fill="#D0D9DD"/>
<path opacity="0.5" d="M618.336 926.701L618.029 926.522L541.458 882.31L541.458 793.555L541.765 793.376L618.336 749.165L618.643 749.344L695.214 793.555L695.214 882.31L694.907 882.489L618.336 926.701ZM542.66 881.62L618.336 925.294L694.012 881.62L694.012 794.271L618.336 750.597L542.66 794.271L542.66 881.62Z" fill="#D0D9DD"/>
<path opacity="0.5" d="M618.336 574.467L541.458 530.077L541.458 441.321L541.765 441.142L618.336 396.931L695.214 441.321L695.214 530.077L694.907 530.256L618.336 574.467ZM542.66 529.386L618.336 573.061L694.012 529.386L694.012 442.037L618.336 398.363L542.66 442.037L542.66 529.386Z" fill="#D0D9DD"/>
<path opacity="0.5" d="M618.336 486.402L541.458 442.011L541.458 353.256L541.765 353.077L618.336 308.866L695.214 353.256L695.214 442.011L694.907 442.19L618.336 486.402ZM542.66 441.321L618.336 484.995L694.012 441.321L694.012 353.972L618.336 310.298L542.66 353.972L542.66 441.321Z" fill="#D0D9DD"/>
<path opacity="0.5" d="M542.073 882.668L541.766 882.489L465.195 838.278L465.195 749.523L465.502 749.344L542.073 705.132L542.38 705.311L618.951 749.523L618.951 838.278L618.644 838.457L542.073 882.668ZM466.397 837.588L542.073 881.262L617.749 837.588L617.749 750.239L542.073 706.564L466.397 750.239L466.397 837.588Z" fill="#D0D9DD"/>
<g opacity="0.5">
<path d="M542.072 266.266L465.194 221.875L465.194 133.12L465.501 132.941L542.072 88.7295L618.95 133.12L618.95 221.875L618.643 222.054L542.072 266.266ZM466.396 221.185L542.072 264.859L617.748 221.185L617.748 133.836L542.072 90.1614L466.396 133.836L466.396 221.185Z" fill="#D0D9DD"/>
</g>
<path opacity="0.5" d="M465.809 926.701L465.502 926.522L388.931 882.31L388.931 793.555L389.238 793.376L465.809 749.165L466.115 749.344L542.686 793.555L542.686 882.31L542.38 882.489L465.809 926.701ZM390.133 881.62L465.809 925.294L541.484 881.62L541.484 794.271L465.809 750.597L390.133 794.271L390.133 881.62Z" fill="#D0D9DD"/>
<path opacity="0.5" d="M465.809 838.636L465.502 838.457L388.931 794.246L388.931 705.49L389.238 705.311L465.809 661.1L542.686 705.49L542.686 794.246L542.38 794.425L465.809 838.636ZM390.133 793.555L465.809 837.23L541.484 793.555L541.484 706.206L465.809 662.532L390.133 706.206L390.133 793.555Z" fill="#D0D9DD"/>
<path opacity="0.5" d="M465.809 574.467L388.931 530.077L388.931 441.321L389.238 441.142L465.809 396.931L542.686 441.321L542.686 530.077L542.38 530.256L465.809 574.467ZM390.133 529.386L465.809 573.061L541.484 529.386L541.484 442.037L465.809 398.363L390.133 442.037L390.133 529.386Z" fill="#D0D9DD"/>
<path opacity="0.5" d="M236.99 706.564L236.683 706.385L160.112 662.174L160.112 573.419L160.419 573.24L236.99 529.028L313.868 573.419L313.868 662.174L313.561 662.353L236.99 706.564ZM161.314 661.484L236.99 705.158L312.666 661.484L312.666 574.135L236.99 530.46L161.314 574.135L161.314 661.484Z" fill="#D0D9DD"/>
<path opacity="0.5" d="M160.7 926.701L160.393 926.522L83.8223 882.311L83.8223 793.555L84.1292 793.376L160.7 749.165L161.007 749.344L237.578 793.555L237.578 882.311L237.271 882.49L160.7 926.701ZM85.0243 881.62L160.7 925.295L236.376 881.62L236.376 794.271L160.7 750.597L85.0243 794.271L85.0243 881.62Z" fill="#D0D9DD"/>
<path opacity="0.5" d="M160.7 662.532L83.8223 618.141L83.8223 529.386L84.1292 529.207L160.7 484.996L237.578 529.386L237.578 618.141L237.271 618.32L160.7 662.532ZM85.0243 617.451L160.7 661.125L236.376 617.451L236.376 530.102L160.7 486.428L85.0243 530.102L85.0243 617.451Z" fill="#D0D9DD"/>
<path opacity="0.5" d="M84.4375 882.668L84.1306 882.489L7.55959 838.278L7.55958 749.523L7.8665 749.344L84.4374 705.132L84.7444 705.311L161.315 749.523L161.315 838.278L161.008 838.457L84.4375 882.668ZM8.76161 837.588L84.4375 881.262L160.113 837.588L160.113 750.239L84.4374 706.564L8.7616 750.239L8.76161 837.588Z" fill="#D0D9DD"/>
<path opacity="0.5" d="M389.519 882.669L389.212 882.49L312.641 838.278L312.641 749.523L312.948 749.344L389.518 705.133L389.825 705.311L466.396 749.523L466.396 838.278L466.089 838.457L389.519 882.669ZM313.843 837.588L389.519 881.262L465.194 837.588L465.194 750.239L389.518 706.564L313.843 750.239L313.843 837.588Z" fill="#D0D9DD"/>
<path opacity="0.5" d="M389.519 442.37L312.641 397.979L312.641 309.224L312.948 309.045L389.518 264.834L466.396 309.224L466.396 397.979L466.089 398.158L389.519 442.37ZM313.843 397.289L389.519 440.963L465.194 397.289L465.194 309.94L389.518 266.266L313.843 309.94L313.843 397.289Z" fill="#D0D9DD"/>
<path opacity="0.5" d="M389.519 618.499L312.641 574.109L312.641 485.354L312.948 485.175L389.518 440.963L466.396 485.354L466.396 574.109L466.089 574.288L389.519 618.499ZM313.843 573.419L389.519 617.093L465.194 573.419L465.194 486.07L389.518 442.395L313.843 486.07L313.843 573.419Z" fill="#D0D9DD"/>
<path opacity="0.5" d="M160.7 838.636L160.393 838.457L83.8223 794.246L83.8223 705.49L84.1292 705.311L160.7 661.1L237.578 705.49L237.578 794.246L237.271 794.425L160.7 838.636ZM85.0243 793.555L160.7 837.23L236.376 793.555L236.376 706.206L160.7 662.532L85.0243 706.206L85.0243 793.555Z" fill="#D0D9DD"/>
<path d="M694.626 530.793L617.441 486.249L617.441 397.136L617.902 396.88L694.626 352.592L771.811 397.136L771.811 486.249L771.351 486.505L694.626 530.793ZM619.257 485.175L694.626 528.67L769.995 485.175L769.995 398.184L694.626 354.689L619.257 398.184L619.257 485.175Z" fill="white"/>
<path d="M389.52 707.881L389.059 707.625L312.335 663.337L312.335 574.224L312.795 573.968L389.52 529.68L466.704 574.224L466.704 663.337L466.244 663.593L389.52 707.881ZM314.151 662.263L389.52 705.758L464.889 662.263L464.889 575.272L389.52 531.777L314.151 575.272L314.151 662.263Z" fill="white"/>
<path d="M236.99 883.027L236.53 882.771L159.806 838.483L159.806 749.369L160.266 749.114L236.99 704.826L237.451 705.081L314.175 749.369L314.175 838.483L313.715 838.738L236.99 883.027ZM161.622 837.409L236.99 880.904L312.359 837.409L312.359 750.418L236.99 706.922L161.622 750.418L161.622 837.409Z" fill="white"/>
<path d="M618.336 750.929L617.876 750.673L541.151 706.385L541.151 617.272L541.612 617.016L618.336 572.728L695.521 617.272L695.521 706.385L695.061 706.641L618.336 750.929ZM542.967 705.311L618.336 748.807L693.705 705.311L693.705 618.32L618.336 574.825L542.967 618.32L542.967 705.311Z" fill="white"/>
<path d="M618.336 662.89L541.151 618.346L541.151 529.233L541.612 528.977L618.336 484.689L695.521 529.233L695.521 618.346L695.061 618.601L618.336 662.89ZM542.967 617.272L618.336 660.767L693.705 617.272L693.705 530.281L618.336 486.785L542.967 530.281L542.967 617.272Z" fill="white"/>
<path d="M542.072 794.962L541.612 794.706L464.888 750.418L464.888 661.305L465.348 661.049L542.072 616.761L619.257 661.305L619.257 750.418L618.797 750.674L542.072 794.962ZM466.704 749.344L542.072 792.839L617.441 749.344L617.441 662.353L542.072 618.858L466.703 662.353L466.704 749.344Z" fill="white"/>
<path d="M542.072 354.663L464.888 310.119L464.888 221.006L465.348 220.75L542.072 176.462L619.257 221.006L619.257 310.119L618.797 310.375L542.072 354.663ZM466.704 309.045L542.072 352.54L617.441 309.045L617.441 222.054L542.072 178.559L466.703 222.054L466.704 309.045Z" fill="white"/>
<path d="M465.809 750.929L465.348 750.674L388.624 706.385L388.624 617.272L389.084 617.016L465.809 572.728L542.994 617.272L542.994 706.385L542.533 706.641L465.809 750.929ZM390.44 705.311L465.809 748.807L541.178 705.311L541.178 618.32L465.809 574.825L390.44 618.321L390.44 705.311Z" fill="white"/>
<path d="M465.809 486.76L388.624 442.216L388.624 353.103L389.084 352.847L465.809 308.559L542.994 353.103L542.994 442.216L542.533 442.472L465.809 486.76ZM390.44 441.142L465.809 484.638L541.178 441.142L541.178 354.152L465.809 310.656L390.44 354.152L390.44 441.142Z" fill="white"/>
<path d="M84.4367 794.962L83.9764 794.706L7.25198 750.418L7.25196 661.305L7.71229 661.049L84.4367 616.761L161.622 661.305L161.622 750.418L161.161 750.674L84.4367 794.962ZM9.06781 749.344L84.4367 792.839L159.806 749.344L159.806 662.353L84.4367 618.858L9.06779 662.353L9.06781 749.344Z" fill="white"/>
<path d="M84.4367 618.857L7.25198 574.314L7.25196 485.2L7.71229 484.945L84.4367 440.656L161.622 485.2L161.622 574.314L161.161 574.569L84.4367 618.857ZM9.06781 573.24L84.4367 616.735L159.806 573.24L159.806 486.249L84.4367 442.753L9.06779 486.249L9.06781 573.24Z" fill="white"/>
<path opacity="0.5" d="M614.118 488.883L614.118 483.999L618.338 481.57L622.583 483.999L622.583 488.883L618.338 491.337L614.118 488.883Z" fill="#D0D9DD"/>
<path opacity="0.5" d="M612.864 137.697L612.864 131.381L618.337 128.211L623.836 131.381L623.836 137.697L618.337 140.868L612.864 137.697Z" fill="#D0D9DD"/>
<path opacity="0.5" d="M609.975 51.3969L609.975 41.7313L618.338 36.8984L626.726 41.7313L626.726 51.3969L618.338 56.2553L609.975 51.3969Z" fill="#D0D9DD"/>
<path opacity="0.5" d="M688.131 534.731L688.131 527.239L694.627 523.505L701.097 527.239L701.097 534.731L694.627 538.49L688.131 534.731Z" fill="#D0D9DD"/>
<path opacity="0.5" d="M690.894 445.234L690.894 440.938L694.627 438.765L698.336 440.938L698.336 445.234L694.627 447.382L690.894 445.234Z" fill="#D0D9DD"/>
<path opacity="0.5" d="M692.095 356.632L692.095 353.692L694.627 352.234L697.159 353.692L697.159 356.632L694.627 358.09L692.095 356.632Z" fill="#D0D9DD"/>
<path opacity="0.5" d="M689.052 270.46L689.052 264.041L694.627 260.82L700.177 264.041L700.177 270.46L694.627 273.656L689.052 270.46Z" fill="#D0D9DD"/>
<path opacity="0.5" d="M692.044 178.994L692.044 176.028L694.627 174.544L697.184 176.028L697.184 178.994L694.627 180.477L692.044 178.994Z" fill="#D0D9DD"/>
<path opacity="0.5" d="M689.129 92.6168L689.129 86.2753L694.627 83.1301L700.101 86.2753L700.101 92.6168L694.627 95.7875L689.129 92.6168Z" fill="#D0D9DD"/>
<path opacity="0.5" d="M691.609 5.24196L691.609 1.7388L694.627 -5.2765e-07L697.645 1.73879L697.645 5.24196L694.627 6.98075L691.609 5.24196Z" fill="#D0D9DD"/>
<path opacity="0.5" d="M463.661 575.644L463.661 573.189L465.809 571.962L467.932 573.189L467.932 575.644L465.809 576.897L463.661 575.644Z" fill="#D0D9DD"/>
<path opacity="0.5" d="M464.045 487.476L464.045 485.431L465.81 484.408L467.574 485.431L467.574 487.476L465.81 488.499L464.045 487.476Z" fill="#D0D9DD"/>
<path opacity="0.5" d="M460.593 401.483L460.593 395.448L465.81 392.431L471.027 395.448L471.027 401.483L465.81 404.5L460.593 401.483Z" fill="#D0D9DD"/>
<path opacity="0.5" d="M460.489 313.571L460.489 307.434L465.809 304.366L471.103 307.434L471.103 313.571L465.809 316.64L460.489 313.571Z" fill="#D0D9DD"/>
<path opacity="0.5" d="M538.059 709.147L538.059 704.519L542.074 702.192L546.089 704.519L546.089 709.147L542.074 711.474L538.059 709.147Z" fill="#D0D9DD"/>
<path opacity="0.5" d="M540.027 620.085L540.027 617.733L542.073 616.556L544.119 617.733L544.119 620.085L542.073 621.261L540.027 620.085Z" fill="#D0D9DD"/>
<path opacity="0.5" d="M538.135 445.362L538.135 440.81L542.073 438.534L546.012 440.81L546.012 445.362L542.073 447.612L538.135 445.362Z" fill="#D0D9DD"/>
<path opacity="0.5" d="M535.604 93.1791L535.604 85.7125L542.074 81.9792L548.544 85.7125L548.544 93.1791L542.074 96.9124L535.604 93.1791Z" fill="#D0D9DD"/>
<path opacity="0.5" d="M157.966 576.001L157.966 572.831L160.702 571.245L163.464 572.831L163.464 576.001L160.702 577.612L157.966 576.001Z" fill="#D0D9DD"/>
<path opacity="0.5" d="M385.096 709.377L385.096 704.289L389.52 701.732L393.945 704.289L393.945 709.377L389.52 711.934L385.096 709.377Z" fill="#D0D9DD"/>
<path opacity="0.5" d="M4.05664 752.745L4.05664 748.015L8.17419 745.636L12.2662 748.015L12.2662 752.745L8.17419 755.098L4.05664 752.745Z" fill="#D0D9DD"/>
<path opacity="0.5" d="M0.373049 578.917L0.373048 569.941L8.17337 565.441L15.9481 569.941L15.9481 578.917L8.17337 583.391L0.373049 578.917Z" fill="#D0D9DD"/>
<path opacity="0.5" d="M82.5195 707.945L82.5195 705.721L84.4376 704.621L86.3558 705.721L86.3558 707.945L84.4376 709.045L82.5195 707.945Z" fill="#D0D9DD"/>
<path opacity="0.5" d="M78.9131 534.194L78.9131 527.801L84.4372 524.605L89.9614 527.801L89.9614 534.194L84.4372 537.39L78.9131 534.194Z" fill="#D0D9DD"/>
<path opacity="0.5" d="M305.736 401.994L305.736 393.326L313.255 388.979L320.774 393.326L320.774 401.994L313.255 406.316L305.736 401.994Z" fill="#D0D9DD"/>
<path d="M152.39 667.212L152.39 657.597L160.701 652.79L169.039 657.597L169.039 667.212L160.701 672.019L152.39 667.212Z" fill="white"/>
<path d="M156.303 488.985L156.303 483.897L160.702 481.365L165.1 483.897L165.1 488.985L160.702 491.542L156.303 488.985Z" fill="white"/>
<path d="M615.678 663.939L615.678 660.845L618.338 659.311L621.023 660.845L621.023 663.939L618.338 665.499L615.678 663.939Z" fill="white"/>
<path d="M613.657 577.127L613.657 571.731L618.337 569.021L623.018 571.731L623.018 577.127L618.337 579.837L613.657 577.127Z" fill="white"/>
<path d="M615.729 400L615.729 396.957L618.337 395.423L620.971 396.957L620.971 400L618.337 401.509L615.729 400Z" fill="white"/>
<path d="M613.656 313.188L613.656 307.793L618.336 305.082L623.042 307.793L623.042 313.188L618.336 315.899L613.656 313.188Z" fill="white"/>
<path d="M614.092 224.969L614.092 220.06L618.337 217.605L622.608 220.06L622.608 224.969L618.337 227.45L614.092 224.969Z" fill="white"/>
<path d="M691.583 708.585L691.583 705.082L694.626 703.317L697.67 705.082L697.67 708.585L694.626 710.349L691.583 708.585Z" fill="white"/>
<path d="M459.928 753.768L459.928 746.992L465.81 743.591L471.667 746.992L471.667 753.768L465.81 757.143L459.928 753.768Z" fill="white"/>
<path d="M462.715 224.304L462.715 220.75L465.809 218.96L468.878 220.75L468.878 224.304L465.809 226.069L462.715 224.304Z" fill="white"/>
<path d="M459.339 138.286L459.339 130.819L465.809 127.086L472.254 130.819L472.254 138.286L465.809 141.993L459.339 138.286Z" fill="white"/>
<path d="M536.473 534.219L536.473 527.775L542.074 524.528L547.674 527.775L547.674 534.219L542.074 537.467L536.473 534.219Z" fill="white"/>
<path d="M537.368 357.885L537.368 352.439L542.074 349.703L546.78 352.439L546.78 357.885L542.074 360.596L537.368 357.885Z" fill="white"/>
<path d="M539.644 268.644L539.644 265.831L542.073 264.425L544.503 265.831L544.503 268.644L542.073 270.051L539.644 268.644Z" fill="white"/>
<path d="M539.388 179.045L539.388 175.951L542.073 174.417L544.758 175.951L544.758 179.045L542.073 180.605L539.388 179.045Z" fill="white"/>
<path d="M385.556 621.21L385.556 616.633L389.52 614.332L393.484 616.633L393.484 621.21L389.52 623.486L385.556 621.21Z" fill="white"/>
<path d="M386.885 532.506L386.885 529.463L389.519 527.955L392.153 529.463L392.153 532.506L389.519 534.04L386.885 532.506Z" fill="white"/>
<path d="M386.578 444.774L386.578 441.373L389.519 439.659L392.486 441.373L392.486 444.774L389.519 446.487L386.578 444.774Z" fill="white"/>
<path d="M384.431 358.115L384.431 352.208L389.52 349.268L394.635 352.208L394.635 358.115L389.52 361.056L384.431 358.115Z" fill="white"/>
<path d="M385.069 269.795L385.069 264.681L389.519 262.098L393.969 264.681L393.969 269.795L389.519 272.377L385.069 269.795Z" fill="white"/>
<path d="M2.59863 668.553L2.59863 662.135L8.17396 658.939L13.7237 662.135L13.7237 668.553L8.17396 671.775L2.59863 668.553Z" fill="white"/>
<path d="M80.6787 621.083L80.6787 616.736L84.4382 614.562L88.1977 616.736L88.1977 621.083L84.4382 623.256L80.6787 621.083Z" fill="white"/>
<path d="M80.166 445.541L80.166 440.606L84.437 438.125L88.708 440.606L88.708 445.541L84.437 448.021L80.166 445.541Z" fill="white"/>
</svg>
