<svg xmlns="http://www.w3.org/2000/svg" width="772" height="927" fill="none">
    <path fill="#D0D9DD"
        d="m694.626 882.669-.307-.179-76.571-44.212v-88.755l.307-.179 76.571-44.211.307.178 76.571 44.212v88.755l-.307.179-76.571 44.212Zm-75.676-45.081 75.676 43.674 75.676-43.674v-87.349l-75.676-43.675-75.676 43.675v87.349Z"
        opacity=".5" />
    <path fill="#D0D9DD"
        d="m694.626 706.564-.307-.179-76.571-44.211v-88.756l.307-.179 76.571-44.211 76.878 44.39v88.756l-.307.179-76.571 44.211Zm-75.676-45.081 75.676 43.675 75.676-43.675v-87.349l-75.676-43.674-75.676 43.674v87.349ZM694.626 442.37l-76.878-44.391v-88.755l.307-.179 76.571-44.212 76.878 44.391v88.755l-.307.179-76.571 44.212Zm-75.676-45.081 75.676 43.674 75.676-43.674V309.94l-75.676-43.675-75.676 43.675v87.349Z"
        opacity=".5" />
    <path fill="#D0D9DD"
        d="m694.626 354.33-76.878-44.39v-88.755l.307-.179 76.571-44.212 76.878 44.391v88.755l-.307.179-76.571 44.211Zm-75.676-45.081 75.676 43.675 75.676-43.675v-87.348l-75.676-43.675-75.676 43.675v87.348Z"
        opacity=".5" />
    <path fill="#D0D9DD"
        d="m694.626 178.201-76.878-44.391V45.055l.307-.179L694.626.69l76.878 44.39v88.756l-.307.179-76.571 44.211v-.025ZM618.95 133.12l75.676 43.674 75.676-43.674V45.771L694.626 2.097 618.95 45.77v87.349ZM618.336 926.701l-.307-.179-76.571-44.212v-88.755l.307-.179 76.571-44.211.307.179 76.571 44.211v88.755l-.307.179-76.571 44.212ZM542.66 881.62l75.676 43.674 75.676-43.674v-87.349l-75.676-43.674-75.676 43.674v87.349ZM618.336 574.467l-76.878-44.39v-88.756l.307-.179 76.571-44.211 76.878 44.39v88.756l-.307.179-76.571 44.211Zm-75.676-45.081 75.676 43.675 75.676-43.675v-87.349l-75.676-43.674-75.676 43.674v87.349Z"
        opacity=".5" />
    <path fill="#D0D9DD"
        d="m618.336 486.402-76.878-44.391v-88.755l.307-.179 76.571-44.211 76.878 44.39v88.755l-.307.179-76.571 44.212Zm-75.676-45.081 75.676 43.674 75.676-43.674v-87.349l-75.676-43.674-75.676 43.674v87.349ZM542.073 882.668l-.307-.179-76.571-44.211v-88.755l.307-.179 76.571-44.212.307.179 76.571 44.212v88.755l-.307.179-76.571 44.211Zm-75.676-45.08 75.676 43.674 75.676-43.674v-87.349l-75.676-43.675-75.676 43.675v87.349ZM542.072 266.266l-76.878-44.391V133.12l.307-.179 76.571-44.212 76.878 44.391v88.755l-.307.179-76.571 44.212Zm-75.676-45.081 75.676 43.674 75.676-43.674v-87.349l-75.676-43.675-75.676 43.675v87.349Z"
        opacity=".5" />
    <path fill="#D0D9DD"
        d="m465.809 926.701-.307-.179-76.571-44.212v-88.755l.307-.179 76.571-44.211.306.179 76.571 44.211v88.755l-.306.179-76.571 44.212Zm-75.676-45.081 75.676 43.674 75.675-43.674v-87.349l-75.675-43.674-75.676 43.674v87.349Z"
        opacity=".5" />
    <path fill="#D0D9DD"
        d="m465.809 838.636-.307-.179-76.571-44.211V705.49l.307-.179 76.571-44.211 76.877 44.39v88.756l-.306.179-76.571 44.211Zm-75.676-45.081 75.676 43.675 75.675-43.675v-87.349l-75.675-43.674-75.676 43.674v87.349ZM465.809 574.467l-76.878-44.39v-88.756l.307-.179 76.571-44.211 76.877 44.39v88.756l-.306.179-76.571 44.211Zm-75.676-45.081 75.676 43.675 75.675-43.675v-87.349l-75.675-43.674-75.676 43.674v87.349ZM236.99 706.564l-.307-.179-76.571-44.211v-88.755l.307-.179 76.571-44.212 76.878 44.391v88.755l-.307.179-76.571 44.211Zm-75.676-45.08 75.676 43.674 75.676-43.674v-87.349L236.99 530.46l-75.676 43.675v87.349ZM160.7 926.701l-.307-.179-76.57-44.211v-88.756l.306-.179 76.571-44.211.307.179 76.571 44.211v88.756l-.307.179-76.571 44.211ZM85.024 881.62l75.676 43.675 75.676-43.675v-87.349L160.7 750.597l-75.676 43.674v87.349Z"
        opacity=".5" />
    <path fill="#D0D9DD"
        d="m160.7 662.532-76.878-44.391v-88.755l.307-.179 76.571-44.211 76.878 44.39v88.755l-.307.179-76.571 44.212Zm-75.676-45.081 75.676 43.674 75.676-43.674v-87.349L160.7 486.428l-75.676 43.674v87.349ZM84.438 882.668l-.307-.179L7.56 838.278v-88.755l.307-.179 76.57-44.212.307.179 76.571 44.212v88.755l-.307.179-76.57 44.211Zm-75.676-45.08 75.675 43.674 75.676-43.674v-87.349l-75.676-43.675-75.675 43.675v87.349ZM389.519 882.669l-.307-.179-76.571-44.212v-88.755l.307-.179 76.57-44.211.307.178 76.571 44.212v88.755l-.307.179-76.57 44.212Zm-75.676-45.081 75.676 43.674 75.675-43.674v-87.349l-75.676-43.675-75.675 43.675v87.349ZM389.519 442.37l-76.878-44.391v-88.755l.307-.179 76.57-44.211 76.878 44.39v88.755l-.307.179-76.57 44.212Zm-75.676-45.081 75.676 43.674 75.675-43.674V309.94l-75.676-43.674-75.675 43.674v87.349Z"
        opacity=".5" />
    <path fill="#D0D9DD"
        d="m389.519 618.499-76.878-44.39v-88.755l.307-.179 76.57-44.212 76.878 44.391v88.755l-.307.179-76.57 44.211Zm-75.676-45.08 75.676 43.674 75.675-43.674V486.07l-75.676-43.675-75.675 43.675v87.349ZM160.7 838.636l-.307-.179-76.57-44.211V705.49l.306-.179L160.7 661.1l76.878 44.39v88.756l-.307.179-76.571 44.211Zm-75.676-45.081L160.7 837.23l75.676-43.675v-87.349L160.7 662.532l-75.676 43.674v87.349Z"
        opacity=".5" />
    <path fill="#fff"
        d="m694.626 530.793-77.185-44.544v-89.113l.461-.256 76.724-44.288 77.185 44.544v89.113l-.46.256-76.725 44.288Zm-75.369-45.618 75.369 43.495 75.369-43.495v-86.991l-75.369-43.495-75.369 43.495v86.991ZM389.52 707.881l-.461-.256-76.724-44.288v-89.113l.46-.256 76.725-44.288 77.184 44.544v89.113l-.46.256-76.724 44.288Zm-75.369-45.618 75.369 43.495 75.369-43.495v-86.991l-75.369-43.495-75.369 43.495v86.991ZM236.99 883.027l-.46-.256-76.724-44.288v-89.114l.46-.255 76.724-44.288.461.255 76.724 44.288v89.114l-.46.255-76.725 44.289Zm-75.368-45.618 75.368 43.495 75.369-43.495v-86.991l-75.369-43.496-75.368 43.496v86.991ZM618.336 750.929l-.46-.256-76.725-44.288v-89.113l.461-.256 76.724-44.288 77.185 44.544v89.113l-.46.256-76.725 44.288Zm-75.369-45.618 75.369 43.496 75.369-43.496V618.32l-75.369-43.495-75.369 43.495v86.991Z" />
    <path fill="#fff"
        d="m618.336 662.89-77.185-44.544v-89.113l.461-.256 76.724-44.288 77.185 44.544v89.113l-.46.255-76.725 44.289Zm-75.369-45.618 75.369 43.495 75.369-43.495v-86.991l-75.369-43.496-75.369 43.496v86.991Z" />
    <path fill="#fff"
        d="m542.072 794.962-.46-.256-76.724-44.288v-89.113l.46-.256 76.724-44.288 77.185 44.544v89.113l-.46.256-76.725 44.288Zm-75.368-45.618 75.368 43.495 75.369-43.495v-86.991l-75.369-43.495-75.369 43.495.001 86.991ZM542.072 354.663l-77.184-44.544v-89.113l.46-.256 76.724-44.288 77.185 44.544v89.113l-.46.256-76.725 44.288Zm-75.368-45.618 75.368 43.495 75.369-43.495v-86.991l-75.369-43.495-75.369 43.495.001 86.991Z" />
    <path fill="#fff"
        d="m465.809 750.929-.461-.255-76.724-44.289v-89.113l.46-.256 76.725-44.288 77.185 44.544v89.113l-.461.256-76.724 44.288Zm-75.369-45.618 75.369 43.496 75.369-43.496V618.32l-75.369-43.495-75.369 43.496v86.99ZM465.809 486.76l-77.185-44.544v-89.113l.46-.256 76.725-44.288 77.185 44.544v89.113l-.461.256-76.724 44.288Zm-75.369-45.618 75.369 43.496 75.369-43.496v-86.99l-75.369-43.496-75.369 43.496v86.99ZM84.437 794.962l-.46-.256-76.725-44.288v-89.113l.46-.256 76.725-44.288 77.185 44.544v89.113l-.461.256-76.724 44.288Zm-75.37-45.618 75.37 43.495 75.369-43.495v-86.991l-75.37-43.495-75.368 43.495v86.991Z" />
    <path fill="#fff"
        d="M84.437 618.857 7.252 574.314V485.2l.46-.255 76.725-44.289 77.185 44.544v89.114l-.461.255-76.724 44.288ZM9.067 573.24l75.37 43.495 75.369-43.495v-86.991l-75.37-43.496-75.368 43.496v86.991Z" />
    <path fill="#D0D9DD"
        d="M614.118 488.883v-4.884l4.22-2.429 4.245 2.429v4.884l-4.245 2.454-4.22-2.454ZM612.864 137.697v-6.316l5.473-3.17 5.499 3.17v6.316l-5.499 3.171-5.473-3.171ZM609.975 51.397V41.73l8.363-4.833 8.388 4.833v9.666l-8.388 4.858-8.363-4.858ZM688.131 534.731v-7.492l6.496-3.734 6.47 3.734v7.492l-6.47 3.759-6.496-3.759ZM690.894 445.234v-4.296l3.733-2.173 3.709 2.173v4.296l-3.709 2.148-3.733-2.148ZM692.095 356.632v-2.94l2.532-1.458 2.532 1.458v2.94l-2.532 1.458-2.532-1.458ZM689.052 270.46v-6.419l5.575-3.221 5.55 3.221v6.419l-5.55 3.196-5.575-3.196ZM692.044 178.994v-2.966l2.583-1.484 2.557 1.484v2.966l-2.557 1.483-2.583-1.483ZM689.129 92.617v-6.342l5.498-3.145 5.474 3.145v6.342l-5.474 3.17-5.498-3.17ZM691.609 5.242V1.739L694.627 0l3.018 1.739v3.503l-3.018 1.739-3.018-1.739ZM463.661 575.644v-2.455l2.148-1.227 2.123 1.227v2.455l-2.123 1.253-2.148-1.253ZM464.045 487.476v-2.045l1.765-1.023 1.764 1.023v2.045l-1.764 1.023-1.765-1.023ZM460.593 401.483v-6.035l5.217-3.017 5.217 3.017v6.035l-5.217 3.017-5.217-3.017ZM460.489 313.571v-6.137l5.32-3.068 5.294 3.068v6.137l-5.294 3.069-5.32-3.069ZM538.059 709.147v-4.628l4.015-2.327 4.015 2.327v4.628l-4.015 2.327-4.015-2.327ZM540.027 620.085v-2.352l2.046-1.177 2.046 1.177v2.352l-2.046 1.176-2.046-1.176ZM538.135 445.362v-4.552l3.938-2.276 3.939 2.276v4.552l-3.939 2.25-3.938-2.25ZM535.604 93.18v-7.468l6.47-3.733 6.47 3.734v7.466l-6.47 3.733-6.47-3.733ZM157.966 576.001v-3.17l2.736-1.586 2.762 1.586v3.17l-2.762 1.611-2.736-1.611ZM385.096 709.377v-5.088l4.424-2.557 4.425 2.557v5.088l-4.425 2.557-4.424-2.557ZM4.057 752.745v-4.73l4.117-2.379 4.092 2.379v4.73l-4.092 2.353-4.117-2.353ZM.373 578.917v-8.976l7.8-4.5 7.775 4.5v8.976l-7.775 4.474-7.8-4.474ZM82.52 707.945v-2.224l1.918-1.1 1.918 1.1v2.224l-1.918 1.1-1.919-1.1ZM78.913 534.194v-6.393l5.524-3.196 5.524 3.196v6.393l-5.524 3.196-5.524-3.196ZM305.736 401.994v-8.668l7.519-4.347 7.519 4.347v8.668l-7.519 4.322-7.519-4.322Z"
        opacity=".5" />
    <path fill="#fff"
        d="M152.39 667.212v-9.615l8.311-4.807 8.338 4.807v9.615l-8.338 4.807-8.311-4.807ZM156.303 488.985v-5.088l4.399-2.532 4.398 2.532v5.088l-4.398 2.557-4.399-2.557ZM615.678 663.939v-3.094l2.66-1.534 2.685 1.534v3.094l-2.685 1.56-2.66-1.56ZM613.657 577.127v-5.396l4.68-2.71 4.681 2.71v5.396l-4.681 2.71-4.68-2.71ZM615.729 400v-3.043l2.608-1.534 2.634 1.534V400l-2.634 1.509-2.608-1.509ZM613.656 313.188v-5.395l4.68-2.711 4.706 2.711v5.395l-4.706 2.711-4.68-2.711ZM614.092 224.969v-4.909l4.245-2.455 4.271 2.455v4.909l-4.271 2.481-4.245-2.481ZM691.583 708.585v-3.503l3.043-1.765 3.044 1.765v3.503l-3.044 1.764-3.043-1.764ZM459.928 753.768v-6.776l5.882-3.401 5.857 3.401v6.776l-5.857 3.375-5.882-3.375ZM462.715 224.304v-3.554l3.094-1.79 3.069 1.79v3.554l-3.069 1.765-3.094-1.765ZM459.339 138.286v-7.467l6.47-3.733 6.445 3.733v7.467l-6.445 3.707-6.47-3.707ZM536.473 534.219v-6.444l5.601-3.247 5.6 3.247v6.444l-5.6 3.248-5.601-3.248ZM537.368 357.885v-5.446l4.706-2.736 4.706 2.736v5.446l-4.706 2.711-4.706-2.711ZM539.644 268.644v-2.813l2.429-1.406 2.43 1.406v2.813l-2.43 1.407-2.429-1.407ZM539.388 179.045v-3.094l2.685-1.534 2.685 1.534v3.094l-2.685 1.56-2.685-1.56ZM385.556 621.21v-4.577l3.964-2.301 3.964 2.301v4.577l-3.964 2.276-3.964-2.276ZM386.885 532.506v-3.043l2.634-1.508 2.634 1.508v3.043l-2.634 1.534-2.634-1.534ZM386.578 444.774v-3.401l2.941-1.714 2.967 1.714v3.401l-2.967 1.713-2.941-1.713ZM384.431 358.115v-5.907l5.089-2.94 5.115 2.94v5.907l-5.115 2.941-5.089-2.941ZM385.069 269.795v-5.114l4.45-2.583 4.45 2.583v5.114l-4.45 2.582-4.45-2.582ZM2.599 668.553v-6.418l5.575-3.196 5.55 3.196v6.418l-5.55 3.222-5.575-3.222ZM80.679 621.083v-4.347l3.76-2.174 3.759 2.174v4.347l-3.76 2.173-3.76-2.173ZM80.166 445.541v-4.935l4.271-2.481 4.271 2.481v4.935l-4.271 2.48-4.271-2.48Z" />
</svg>