<svg xmlns="http://www.w3.org/2000/svg" fill="none" viewBox="0 0 30 28">
  <path fill="#000" d="M7.00715.916359C6.53543 1.38808 6.9187 2.27257 8.54026 4.48379c1.91634 2.56501 2.29964 2.9188 2.74194 2.47656.2948-.29483-1.29728-3.74433-2.47659-5.45433C8.27492.768944 7.41991.474116 7.00715.916359ZM17.2857 1.0917c-.5012.79604-.914 4.74674-.6192 5.95554.1769.70759.2654.76656.6192.41276.6191-.64862 2.2112-4.65829 2.2112-5.60175 0-.53069-.2064-.943448-.5602-1.149828-.855-.442243-1.1498-.383277-1.651.383278Zm5.5134 5.83769c-3.0367 2.12277-3.3905 2.65346-2.3586 3.33161.3832.2063.737.1769 1.4741-.1769 1.4447-.67815 5.8966-4.36351 5.7492-4.74679-.059-.20638-.5012-.38327-.973-.44224-.6781-.05896-1.5331.38328-3.8917 2.03432ZM1.27792 10.5685c-.589863.6464.16843 1.0842 2.51237 1.4023 3.41904.4574 3.62601.4325 4.02212-.2536.33356-.5777.3183-.6347-.43795-.9509-.92153-.3636-4.71282-.84332-5.33934-.6754-.22783.061-.56753.2741-.7572.4776Zm4.91756 6.9807c-2.91773.9649-4.45065 2.2274-3.8489 3.0786.31291.4426.55036.4534 2.03991.1407 2.29992-.5026 4.47971-2.2224 4.73908-3.7335.07481-.4358-.26478-.3745-2.93009.5142Zm6.60852 1.4977c-.1769.2064-.7961 1.4447-1.4447 2.7419-.8845 1.8575-1.1203 2.7125-1.1498 4.0392 0 .9434.1474 1.71.2948 1.7395.4128.0884 2.1817-4.7763 2.5355-6.9285.2949-1.8279.2359-2.2112-.2358-1.5921Z"/>
  <g filter="url(#a)">
    <path fill="#84CC16" d="m26.8058 17.9665-10.128-4.4517c-.3496-.1081-.6725.2506-.5491.5678l3.8763 9.9613c.0867.2229.338.3335.561.2467.105-.0408.1899-.1205.2249-.2011l1.3353-2.5463 3.1456 3.2083c.0535.0547.1265.086.2031.0871.0372-.0003.0736-.007.1076-.0202.036-.014.0692-.0356.0974-.0633l1.4446-1.4178c.1142-.1113.1161-.2944.0043-.4083l-3.0455-3.107 2.7041-1.0523c.2229-.0867.3334-.338.2467-.561-.0254-.0651-.0802-.1567-.2283-.2422Z"/>
  </g>
  <defs>
    <filter id="a" width="13.8411" height="14.0752" x="14.7362" y="13.4952" color-interpolation-filters="sRGB" filterUnits="userSpaceOnUse">
      <feFlood flood-opacity="0" result="BackgroundImageFix"/>
      <feColorMatrix in="SourceAlpha" result="hardAlpha" values="0 0 0 0 0 0 0 0 0 0 0 0 0 0 0 0 0 0 127 0"/>
      <feOffset dy="1.36585"/>
      <feGaussianBlur stdDeviation=".682927"/>
      <feComposite in2="hardAlpha" operator="out"/>
      <feColorMatrix values="0 0 0 0 0 0 0 0 0 0 0 0 0 0 0 0 0 0 0.25 0"/>
      <feBlend in2="BackgroundImageFix" result="effect1_dropShadow_87_178"/>
      <feBlend in="SourceGraphic" in2="effect1_dropShadow_87_178" result="shape"/>
    </filter>
  </defs>
</svg>